<?xml version="1.0" encoding="UTF-8"?>
<svg width="48px" height="48px" viewBox="0 0 48 48" version="1.1" xmlns="http://www.w3.org/2000/svg" xmlns:xlink="http://www.w3.org/1999/xlink">
    <defs>
        <linearGradient x1="49.9312226%" y1="1.6303622%" x2="49.9312226%" y2="98.6057995%" id="linearGradient-1">
            <stop stop-color="#FF1B2D" offset="30%"></stop>
            <stop stop-color="#FA1A2C" offset="44%"></stop>
            <stop stop-color="#ED1528" offset="59%"></stop>
            <stop stop-color="#D60E21" offset="76%"></stop>
            <stop stop-color="#B70519" offset="93%"></stop>
            <stop stop-color="#A70014" offset="100%"></stop>
        </linearGradient>
        <linearGradient x1="49.9841945%" y1="0.845756881%" x2="49.9841945%" y2="99.6416284%" id="linearGradient-2">
            <stop stop-color="#9C0000" offset="0%"></stop>
            <stop stop-color="#FF4B4B" offset="70%"></stop>
        </linearGradient>
    </defs>
    <g id="Page-1" stroke="none" stroke-width="1" fill="none" fill-rule="evenodd">
        <g id="Group" fill-rule="nonzero">
            <path d="M16.0675312,37.5295694 C13.4162776,34.3946411 11.6965455,29.76689 11.5771197,24.5658947 C11.5771197,24.5658947 11.5771197,23.4492632 11.5771197,23.4373206 C11.6965455,18.2422967 13.4103063,13.6085742 16.0675312,10.4736459 C19.4890814,6.00711962 24.6124498,3.17075598 30.3269761,3.17075598 C33.7556417,3.17551937 37.1057245,4.19800124 39.9526986,6.10863158 C35.5800378,2.18452385 29.9144666,0.00970985277 24.0392058,0 L23.9496364,0 C10.935954,0.0298632136 0.316168522,10.4240365 0.00690680194,23.434078 C-0.302354918,36.4441195 9.81155495,47.3311535 22.8091197,47.9794756 C23.1853111,47.9794756 23.5674738,47.9794756 23.9496364,47.9794756 C29.8518259,47.9999146 35.5526255,45.8344616 39.9526986,41.900555 C37.1074147,43.810055 33.7595778,44.8324857 30.3329474,44.8384306 C24.6124498,44.8384306 19.4890814,42.002067 16.0675312,37.5295694 Z" id="Path" fill="url(#linearGradient-1)"></path>
            <path d="M16.0675312,10.4796172 C18.2709379,7.88210526 21.1132728,6.29971292 24.2243159,6.29971292 C31.2107273,6.29971292 36.8774833,14.2236172 36.8774833,23.9926507 C36.8774833,33.7616842 31.1928135,41.6975311 24.206402,41.6975311 C21.1013302,41.6975311 18.2351101,40.1270813 16.0496173,37.5176268 C19.4950527,41.9901244 24.6124498,44.826488 30.3269761,44.826488 C33.7544058,44.8252578 37.1043864,43.8069635 39.9526986,41.900555 C45.0464944,37.3476539 47.9583451,30.8395379 47.9583451,24.0075789 C47.9583451,17.17562 45.0464944,10.667504 39.9526986,6.11460287 C37.1063941,4.20186117 33.75626,3.17728541 30.3269761,3.17075598 C24.6124498,3.17075598 19.4890814,6.00711962 16.0675312,10.4796172 Z" id="Path" fill="url(#linearGradient-2)"></path>
        </g>
    </g>
</svg>
