<svg xmlns="http://www.w3.org/2000/svg" viewBox="0 0 421 288">

<style>
  path {
    fill: black;
  }

  @media (prefers-color-scheme: dark) {
    path {
      fill: white;
    }
  }
</style>

<path d="M420.231 254.905L281.238 254.868L418.853 230.344L417.67 220.044L267.741 246.78L413.236 193.772L410.884 183.788L265.539 236.74L403.484 158.577L400.009 149.113L262.214 227.202L389.793 125.445L385.269 116.706L257.825 218.333L372.447 95.0828L366.965 87.2181L252.477 210.339L351.79 68.0862L345.454 61.2813L246.246 203.366L328.243 45.0314L321.203 39.4164L239.295 197.565L302.299 26.3644L294.674 22.0323L231.761 193.047L274.482 12.4571L266.438 9.51943L223.762 189.924L245.347 3.60697L237.048 2.13815L215.493 188.232V0H207.12V187.711L185.654 1.69193L177.371 3.16075L198.836 189.273L156.19 8.64557L148.161 11.5832L190.747 191.988L127.834 20.7494L120.209 25.0629L183.063 196.115L101.141 37.7245L94.1004 43.3394L175.918 201.563L76.6644 59.2547L70.3431 66.0597L169.477 208.2L54.9144 84.8754L49.4319 92.7215L163.859 215.916L36.325 114.084L31.7862 122.823L159.186 224.543L21.2707 146.268L17.7805 155.732L155.546 233.914L10.0512 180.813L7.6994 190.779L153.014 243.824L2.92098 216.958L1.72263 227.258L134.994 251.112L0 251.038V267.381L152.805 267.455L152.819 254.31L152.969 254.329L154.138 244.252L154.287 244.307L156.609 234.528L156.759 234.602L160.174 225.343L160.309 225.454L164.743 216.883L164.863 217.013L170.24 209.316L170.345 209.465L176.547 202.79L176.637 202.957L183.542 197.454L183.617 197.64L191.077 193.401L191.122 193.587L199.001 190.723L199.031 190.928L207.12 189.478V189.682H215.328L215.298 189.868L223.432 191.318L223.387 191.504L231.266 194.386L231.192 194.572L238.666 198.793L238.576 198.96L245.482 204.463L245.377 204.612L251.578 211.287L251.459 211.417L256.836 219.114L256.701 219.226L261.135 227.797L261 227.89L264.416 237.149L264.251 237.205L266.573 246.985L266.408 247.003L267.412 255.723V269.723L420.231 269.742V254.905Z"/>
<path d="M210.625 288C220.412 288 228.345 278.152 228.345 266.005C228.345 253.857 220.412 244.01 210.625 244.01C200.838 244.01 192.904 253.857 192.904 266.005C192.904 278.152 200.838 288 210.625 288Z"/>

</svg>
